<svg width="52" height="51" viewBox="0 0 52 51" fill="none" xmlns="http://www.w3.org/2000/svg">
<rect x="1" y="0.5" width="50" height="50" rx="25" fill="white"/>
<rect x="1" y="0.5" width="50" height="50" rx="25" stroke="#E9E9E9"/>
<g clip-path="url(#clip0_10_333)">
<path d="M33.5 26.072L26 33.5L18.5 26.072C18.0053 25.5906 17.6156 25.012 17.3555 24.3726C17.0954 23.7333 16.9706 23.047 16.9887 22.3569C17.0069 21.6669 17.1678 20.9881 17.4612 20.3633C17.7545 19.7385 18.1741 19.1813 18.6935 18.7266C19.2128 18.2719 19.8207 17.9297 20.4788 17.7215C21.1369 17.5133 21.831 17.4436 22.5174 17.5168C23.2037 17.59 23.8675 17.8046 24.4669 18.1469C25.0662 18.4893 25.5882 18.952 26 19.506C26.4135 18.956 26.9361 18.4973 27.5351 18.1586C28.1341 17.8199 28.7965 17.6085 29.4809 17.5375C30.1654 17.4666 30.8571 17.5377 31.5128 17.7464C32.1685 17.9551 32.774 18.2969 33.2915 18.7504C33.8091 19.2039 34.2274 19.7593 34.5204 20.3819C34.8134 21.0045 34.9747 21.6809 34.9943 22.3687C35.0139 23.0565 34.8913 23.741 34.6341 24.3793C34.377 25.0175 33.9909 25.5958 33.5 26.078" stroke="#0F0F0F" stroke-opacity="0.8" stroke-width="1.5" stroke-linecap="round" stroke-linejoin="round"/>
</g>
<defs>
<clipPath id="clip0_10_333">
<rect width="24" height="24" fill="white" transform="translate(14 13.5)"/>
</clipPath>
</defs>
</svg>
